<?xml version="1.0" standalone="no"?>
<!DOCTYPE svg PUBLIC "-//W3C//DTD SVG 20010904//EN"
 "http://www.w3.org/TR/2001/REC-SVG-20010904/DTD/svg10.dtd">
<svg version="1.0" xmlns="http://www.w3.org/2000/svg"
 width="700.000000pt" height="700.000000pt" viewBox="0 0 700.000000 700.000000"
 preserveAspectRatio="xMidYMid meet">
<metadata>
Created by potrace 1.11, written by Peter Selinger 2001-2013
</metadata>
<g transform="translate(0.000000,700.000000) scale(0.100000,-0.100000)"
fill="#000000" stroke="none">
<path d="M3458 6415 c-2 -2 -36 -6 -77 -10 -41 -4 -82 -8 -90 -10 -9 -1 -50
-6 -91 -10 -41 -3 -86 -8 -100 -10 -14 -2 -57 -7 -96 -10 -39 -3 -80 -7 -90
-9 -10 -2 -53 -7 -94 -11 -41 -3 -82 -8 -90 -10 -8 -2 -49 -7 -90 -10 -41 -4
-86 -8 -100 -10 -14 -2 -59 -6 -100 -10 -41 -3 -82 -8 -90 -10 -8 -2 -46 -6
-85 -10 -73 -7 -77 -7 -240 -25 -55 -6 -122 -13 -150 -16 -27 -3 -66 -7 -85
-9 -60 -7 -133 -14 -185 -19 -47 -5 -130 -14 -185 -21 -14 -2 -56 -6 -95 -10
-38 -3 -79 -8 -90 -10 -11 -2 -23 -4 -26 -4 -4 -1 -6 -951 -5 -2112 l1 -2112
140 -83 c77 -46 147 -88 157 -93 77 -46 1021 -607 1155 -687 95 -57 176 -104
179 -104 3 0 18 -8 32 -19 53 -37 622 -371 632 -371 6 0 194 109 418 242 658
390 771 458 882 524 144 86 395 234 439 260 20 12 150 89 290 173 139 83 257
151 261 151 5 0 9 952 9 2115 0 1625 -3 2115 -12 2116 -7 0 -21 2 -32 4 -11 2
-49 7 -85 10 -36 4 -76 8 -90 10 -26 4 -92 11 -182 20 -29 3 -69 8 -88 10 -35
5 -73 9 -185 20 -33 3 -76 8 -95 10 -19 3 -62 7 -95 10 -33 3 -76 8 -95 10
-19 2 -60 7 -90 10 -96 11 -134 15 -170 20 -19 3 -62 7 -95 10 -112 10 -170
16 -195 20 -14 3 -54 7 -90 10 -36 3 -81 7 -100 10 -19 2 -82 9 -140 15 -58 6
-118 13 -135 15 -16 2 -57 7 -90 10 -33 4 -80 9 -105 12 -57 6 -168 11 -172 8z
m182 -316 c36 -4 115 -12 175 -19 61 -6 128 -13 150 -15 22 -2 67 -7 100 -10
33 -3 76 -8 95 -10 19 -3 60 -7 90 -10 30 -3 71 -7 90 -10 19 -3 63 -7 97 -10
34 -3 77 -7 95 -9 18 -2 65 -7 103 -11 39 -3 81 -8 95 -10 14 -2 57 -7 95 -10
39 -3 86 -8 105 -10 19 -3 62 -7 95 -10 33 -4 78 -8 100 -11 78 -9 111 -13
165 -18 119 -12 166 -17 185 -21 11 -2 22 -4 26 -4 3 -1 5 -356 5 -790 0 -847
2 -804 -46 -766 -14 11 -45 29 -129 77 -19 11 -122 72 -230 135 -215 127
-1383 816 -1525 899 l-88 52 -142 -85 c-77 -47 -154 -93 -171 -103 -26 -15
-218 -129 -785 -468 -74 -44 -209 -124 -300 -178 -91 -54 -261 -156 -377 -226
-117 -69 -214 -124 -215 -120 0 4 -2 359 -3 789 l-1 782 25 5 c14 3 53 8 86
11 33 3 76 8 95 10 19 3 63 7 98 11 35 3 71 7 81 9 9 2 57 6 107 10 49 4 96 9
105 10 9 2 52 6 95 10 43 4 81 9 84 10 3 2 43 6 90 10 47 4 92 9 101 10 8 2
53 6 100 10 46 4 92 9 103 11 10 2 53 6 94 10 42 3 83 7 92 9 10 2 53 6 96 10
43 4 81 9 84 10 3 2 43 6 90 10 47 4 93 9 103 11 9 1 56 6 105 9 48 4 89 9 92
11 6 7 144 3 220 -7z m-97 -857 c29 -16 75 -42 102 -59 28 -17 138 -81 245
-143 107 -62 220 -127 250 -145 79 -47 407 -238 460 -268 137 -77 876 -510
884 -517 6 -6 2 -12 -10 -17 -10 -4 -90 -51 -177 -103 -86 -52 -172 -104 -191
-115 -56 -34 -283 -168 -352 -208 l-65 -38 -275 163 c-151 90 -287 170 -302
179 -126 74 -324 192 -457 271 l-160 95 -3 -100 c-2 -72 1 -104 10 -112 11
-10 709 -434 773 -469 11 -6 68 -40 127 -76 l107 -64 -91 -48 -90 -49 -310
183 c-171 101 -329 194 -352 207 -22 12 -66 38 -96 56 -105 62 -95 67 -95 -51
l0 -103 338 -198 c383 -225 356 -193 234 -269 l-57 -35 -228 137 c-125 76
-237 144 -250 152 l-23 15 3 -107 3 -108 158 -93 c87 -51 159 -97 159 -102 1
-7 -95 -68 -147 -94 -11 -5 -38 -21 -60 -34 -22 -14 -58 -35 -80 -46 l-41 -21
-239 143 c-132 78 -287 170 -345 204 -58 34 -323 192 -590 350 -267 158 -501
297 -520 309 -20 12 -45 26 -55 33 -11 6 -67 39 -123 73 -57 34 -102 64 -99
66 4 5 690 418 762 460 22 12 301 180 620 373 319 192 584 350 588 350 5 1 32
-12 60 -27z m1962 -2237 c0 -764 -2 -876 -15 -888 -8 -8 -132 -83 -275 -167
-143 -84 -343 -203 -445 -263 -102 -61 -228 -136 -280 -166 -52 -31 -180 -108
-285 -170 -104 -62 -197 -117 -205 -122 -176 -104 -248 -146 -260 -152 -8 -4
-66 -38 -128 -76 l-114 -68 -129 78 c-71 44 -131 79 -133 79 -2 0 -51 29 -110
65 -58 36 -120 73 -138 83 -31 17 -436 257 -706 418 -68 41 -125 74 -127 74
-2 0 -24 14 -48 30 -25 17 -48 30 -51 30 -4 0 -19 9 -34 19 -25 17 -433 260
-483 287 -11 7 -26 17 -32 23 -9 9 -12 231 -13 871 0 472 2 857 5 856 3 -2
103 -61 221 -132 118 -71 231 -138 250 -149 37 -21 184 -109 210 -125 8 -6
161 -97 340 -203 179 -106 470 -280 648 -386 l322 -192 0 -100 c0 -99 0 -100
-22 -93 -13 4 -41 19 -63 34 -22 15 -44 29 -50 31 -5 2 -280 166 -610 364
-330 198 -605 361 -611 363 -14 4 -13 -193 1 -206 8 -7 399 -243 1268 -765
l97 -58 0 -110 c0 -61 -3 -108 -7 -106 -32 17 -566 334 -595 353 -21 13 -40
24 -43 24 -3 0 -24 12 -48 27 -23 15 -51 32 -62 39 -38 21 -570 336 -580 344
-39 29 -43 22 -42 -85 l1 -103 105 -62 c58 -34 133 -78 166 -97 257 -153 452
-269 645 -383 124 -73 277 -164 340 -202 63 -38 120 -66 128 -63 10 4 725 428
1017 604 34 20 70 41 80 48 11 6 72 42 135 79 63 37 123 74 133 82 16 14 17
49 17 456 l0 441 225 135 c124 74 260 156 302 182 43 26 80 47 83 48 3 0 6
-394 5 -875z"/>
</g>
</svg>
